<svg id="Layer_1" enable-background="new 0 0 511.333 511.333" height="512" viewBox="0 0 511.333 511.333" width="512" xmlns="http://www.w3.org/2000/svg"><path d="m383.667 255.667c0 81.731-75.473 142.323-155.16 125.11-57.65-12.46-100.84-63.74-100.84-125.11 0-70.69 57.31-128 128-128 70.695 0 128 57.327 128 128z" fill="#ffe773"/><path d="m383.667 255.667c0 81.731-75.473 142.323-155.16 125.11-51.606-94.758 31.444-209.593 139.65-186.22 9.89 18.159 15.51 38.979 15.51 61.11z" fill="#ffec8f"/><path d="m255.667 106.667c-82.159 0-149 66.841-149 149s66.841 149 149 149 149-66.841 149-149-66.842-149-149-149zm0 256c-59 0-107-48-107-107s48-107 107-107 107 48 107 107-48 107-107 107z"/><path d="m255.667 74c11.598 0 21-9.402 21-21v-32c0-11.598-9.402-21-21-21s-21 9.402-21 21v32c0 11.598 9.401 21 21 21z"/><path d="m53 234.667h-32c-11.598 0-21 9.402-21 21s9.402 21 21 21h32c11.598 0 21-9.402 21-21s-9.402-21-21-21z"/><path d="m255.667 437.333c-11.598 0-21 9.402-21 21v32c0 11.598 9.402 21 21 21s21-9.402 21-21v-32c0-11.598-9.402-21-21-21z"/><path d="m490.333 234.667h-32c-11.598 0-21 9.402-21 21s9.402 21 21 21h32c11.598 0 21-9.402 21-21s-9.402-21-21-21z"/><path d="m400.817 80.817-10.667 10.667c-8.201 8.201-8.201 21.498 0 29.698 8.201 8.201 21.497 8.201 29.698 0l10.667-10.667c8.201-8.201 8.201-21.498 0-29.698-8.201-8.201-21.496-8.201-29.698 0z"/><path d="m91.484 121.182c8.201 8.201 21.497 8.201 29.698 0s8.201-21.498 0-29.698l-10.667-10.667c-8.201-8.201-21.497-8.201-29.698 0s-8.201 21.498 0 29.698z"/><path d="m91.484 390.151-10.667 10.667c-8.201 8.201-8.201 21.498 0 29.698 8.201 8.201 21.497 8.201 29.698 0l10.667-10.667c8.201-8.201 8.201-21.498 0-29.698-8.201-8.201-21.497-8.201-29.698 0z"/><path d="m419.849 390.151c-8.201-8.201-21.497-8.201-29.698 0s-8.201 21.498 0 29.698c10.025 10.025 14.712 16.817 25.516 16.817 18.541 0 28.116-22.583 14.849-35.849z"/></svg>