<svg id="Layer_1" enable-background="new 0 0 511.527 511.527" height="512" viewBox="0 0 511.527 511.527" width="512" xmlns="http://www.w3.org/2000/svg"><path d="m490.474 255.77c0 20.71-9.84 39.13-25.11 50.82-23.342-20.645-56.06-24.186-82.3-11.28-6.97-65.094-62.343-114.21-127.26-114.21-37.676 0-72.743 16.372-96.96 44.43-53.651-9.374-102.647 18.689-124.91 62.24-43.433-84.851 28.5-185.799 124.91-168.91 23.48-27.21 58.21-44.43 96.96-44.43 73.004 0 131.292 61.088 127.87 133.75 40.906-36.763 106.8-7.806 106.8 47.59z" fill="#cffdfe"/><path d="m21.134 341.1c0 23.519 6.935 46.195 20.02 65.57.01.01.01.02.02.03 15.65 18.59 39.1 30.4 65.3 30.4h309.33c41.24 0 74.67-33.43 74.67-74.67 0-55.413-58.204-91.141-107.41-67.11-6.87-64.21-61.22-114.22-127.26-114.22-38.76 0-73.48 17.22-96.96 44.43-72.138-12.641-137.71 42.918-137.71 115.57z" fill="#aefcfe"/><path d="m21.134 341.1c0 23.519 6.935 46.195 20.02 65.57.01.01.01.02.02.03 15.65 18.59 39.1 30.4 65.3 30.4h53.33c0-29.35 13.407-55.088 34.241-72.515 52.223-43.684 30.28-128.606-36.953-139.342-71.854-11.473-135.958 44.13-135.958 115.857z" fill="#94f8fa"/><path d="m391.75 330.479c44.779-1.606 80.738 35.983 77.142 80.664-.295 3.663-.567 4.365-.4 4.198 46.997-46.807 13.636-127.572-52.689-127.572-11.836 0-23.03 2.754-32.975 7.656-17.726 8.74-10.829 35.762 8.922 35.054z" fill="#94f8fa"/><path d="m511.474 255.77c0-56.672-54.743-97.735-109.337-81.429-22.294-116.373-166.46-161.798-251.266-77.688-103.587-9.208-180.095 95.154-140.044 191.131-17.82 42.499-13.298 91.815 12.924 130.639.311.471.82 1.161 1.357 1.801 20.263 24.07 49.919 37.876 81.365 37.876h309.33c77.542 0 122.582-87.803 78.224-150.68 11.251-14.634 17.447-32.614 17.447-51.65zm-42 0c0 8.426-2.4 16.444-6.815 23.277-20.118-11.293-42.589-14.518-63.548-10.833-2.937-10.314-6.991-20.25-12.054-29.657 2.433-5.585 6.039-10.604 10.654-14.758 27.567-24.774 71.763-5.099 71.763 31.971zm-106.712-56.281c-.924 1.044-1.811 2.115-2.68 3.199-28.26-27.688-65.811-42.751-104.947-42.58-13.493-21.114-32.475-38.135-54.603-49.291 69.981-42.232 160.012 6.929 162.23 88.672zm-224.288-61.389c27.31 0 52.03 11.393 69.667 29.832-21.382 7.219-41.006 19.252-57.274 35.387-40.434-3.561-79.615 10.471-108.461 38.346-4.121-56.514 40.657-103.565 96.068-103.565zm277.33 278h-309.33c-18.664 0-36.288-8.04-48.529-22.101-44.539-67.609 10.366-158.928 92.857-148.446 47.245 6.058 84.002 46.552 84.002 95.546 0 11.598 9.402 21 21 21s21-9.402 21-21c0-53.977-31.079-100.825-76.278-123.608 62.259-37.578 143.196-3.346 159.497 67.233-4.155 2.986-8.132 6.328-11.865 10.062-8.201 8.201-8.201 21.498 0 29.699s21.497 8.201 29.698 0c33.863-33.865 91.618-9.478 91.618 37.944 0 29.595-24.077 53.671-53.67 53.671z"/></svg>