<svg id="Layer_1" enable-background="new 0 0 511.336 511.336" height="512" viewBox="0 0 511.336 511.336" width="512" xmlns="http://www.w3.org/2000/svg"><path d="m20.992 234.335c0 23.519 6.935 46.195 20.02 65.57.01.01.01.02.02.03 15.65 18.59 39.1 30.4 65.3 30.4h309.33c41.24 0 74.67-33.43 74.67-74.67 0-55.413-58.204-91.141-107.41-67.11-6.87-64.21-61.22-114.22-127.26-114.22-38.76 0-73.48 17.22-96.96 44.43-72.137-12.64-137.71 42.918-137.71 115.57z" fill="#aefcfe"/><path d="m20.992 234.335c0 23.519 6.935 46.195 20.02 65.57.01.01.01.02.02.03 15.65 18.59 39.1 30.4 65.3 30.4h53.33c0-29.35 13.407-55.088 34.241-72.515 52.223-43.684 30.28-128.606-36.953-139.342-71.853-11.473-135.958 44.13-135.958 115.857z" fill="#94f8fa"/><path d="m391.609 223.714c44.779-1.606 80.738 35.983 77.142 80.664-.295 3.663-.567 4.365-.4 4.198 46.997-46.807 13.636-127.572-52.689-127.572-11.836 0-23.03 2.754-32.975 7.656-17.726 8.74-10.829 35.762 8.922 35.054z" fill="#94f8fa"/><path d="m484.078 188.872c-16.675-18.57-49.676-33.653-85.108-27.423-31.017-108.908-167.873-144.61-248.245-64.895-83.279-7.335-154.512 60.169-150.569 144.599 1.281 26.416 10.195 51.157 23.507 70.586.405.595.84 1.169 1.304 1.721 20.263 24.07 49.919 37.876 81.365 37.876 11.598 0 21-9.402 21-21s-9.402-21-21-21c-18.664 0-36.288-8.04-48.529-22.101-43.687-66.316 8.155-156.154 89.395-148.82 49.114 4.473 87.464 45.959 87.464 95.921 0 11.598 9.402 21 21 21s21-9.402 21-21c0-53.977-31.079-100.825-76.278-123.608 61.468-37.101 143.001-4.194 159.497 67.233-4.155 2.986-8.132 6.328-11.865 10.062-8.201 8.201-8.201 21.498 0 29.699s21.497 8.201 29.698 0c33.794-33.795 91.618-9.597 91.618 37.944 0 29.594-24.076 53.67-53.67 53.67-11.598 0-21 9.402-21 21s9.402 21 21 21c84.206-.001 127.441-102.029 68.416-162.464z"/><path d="m351.662 351.335c11.598 0 21-9.402 21-21s-9.402-21-21-21h-181.333c-11.598 0-21 9.402-21 21s9.402 21 21 21z"/><path d="m287.662 373.335h-181.333c-11.598 0-21 9.402-21 21s9.402 21 21 21h181.333c11.598 0 21-9.402 21-21s-9.402-21-21-21z"/><path d="m415.662 416.002h-64c-11.598 0-21 9.402-21 21s9.402 21 21 21h64c11.598 0 21-9.402 21-21s-9.402-21-21-21z"/></svg>