<svg id="Layer_1" enable-background="new 0 0 511.502 511.502" height="512" viewBox="0 0 511.502 511.502" width="512" xmlns="http://www.w3.org/2000/svg"><path d="m490.433 245.084c0 81.731-75.473 142.323-155.16 125.11-57.65-12.46-100.84-63.74-100.84-125.11 0-70.69 57.31-128 128-128 70.695 0 128 57.328 128 128z" fill="#ffe773"/><path d="m490.433 245.084c0 81.731-75.473 142.323-155.16 125.11-51.606-94.758 31.444-209.593 139.65-186.22 9.89 18.16 15.51 38.98 15.51 61.11z" fill="#ffec8f"/><path d="m21.097 341.084c0 23.519 6.935 46.195 20.02 65.57.01.01.01.02.02.03 15.65 18.59 39.1 30.4 65.3 30.4h309.33c41.24 0 74.67-33.43 74.67-74.67 0-55.413-58.204-91.141-107.41-67.11-6.87-64.21-61.22-114.22-127.26-114.22-38.76 0-73.48 17.22-96.96 44.43-72.137-12.641-137.71 42.918-137.71 115.57z" fill="#aefcfe"/><path d="m21.097 341.084c0 23.519 6.935 46.195 20.02 65.57.01.01.01.02.02.03 15.65 18.59 39.1 30.4 65.3 30.4h53.33c0-29.35 13.407-55.088 34.241-72.515 52.223-43.684 30.28-128.606-36.953-139.342-71.854-11.473-135.958 44.13-135.958 115.857z" fill="#94f8fa"/><path d="m391.713 330.463c44.779-1.606 80.738 35.983 77.142 80.664-.295 3.663-.567 4.365-.4 4.198 46.997-46.807 13.636-127.572-52.689-127.572-11.836 0-23.03 2.754-32.975 7.656-17.726 8.74-10.828 35.762 8.922 35.054z" fill="#94f8fa"/><path d="m481.549 155.669 16.414-16.417c8.2-8.202 8.199-21.498-.002-29.699-8.202-8.2-21.499-8.199-29.699.002l-16.412 16.414c-19.624-14.768-42.999-24.799-68.416-28.4l-.002-23.155c-.001-11.598-9.404-21-21.002-20.999s-20.999 9.404-20.998 21.001l.002 23.181c-24.959 3.581-48.477 13.458-68.4 28.385l-16.433-16.43c-8.201-8.2-21.498-8.2-29.698.002-8.201 8.202-8.2 21.498.002 29.698l16.389 16.387c-1.318 1.75-2.6 3.532-3.844 5.347-33.424 3.676-64.661 18.55-88.621 42.314-117.078-10.38-191.32 119.92-127.161 215.039.433.648.902 1.272 1.404 1.869 20.264 24.07 49.92 37.875 81.365 37.875h309.33c75.744 0 121.192-84.224 80.456-147.376 24.149-49.203 19.774-109.264-14.674-155.038zm-82.475 112.529c-14.521-50.986-55.365-90.701-107.037-103.641 19.251-16.782 44.217-26.473 70.4-26.473 72.983 0 124.962 72.012 101.275 141.554-20.004-11.58-42.932-15.257-64.638-11.44zm16.693 147.886h-309.33c-18.661 0-36.285-8.041-48.526-22.097-44.541-67.603 10.361-158.966 92.883-148.446 47.078 6.06 83.973 46.398 83.973 95.543 0 11.598 9.402 21 21 21s21-9.402 21-21c0-53.977-31.079-100.825-76.278-123.609 61.468-37.1 143-4.195 159.496 67.234-4.155 2.986-8.132 6.328-11.865 10.062-8.201 8.201-8.201 21.498 0 29.698 8.201 8.201 21.497 8.201 29.698 0 33.878-33.878 91.618-9.5 91.618 37.945.001 29.594-24.076 53.67-53.669 53.67z"/></svg>