<svg id="Layer_1" enable-background="new 0 0 512.085 512.085" height="512" viewBox="0 0 512.085 512.085" width="512" xmlns="http://www.w3.org/2000/svg"><path d="m490.455 299.403c-40.03 34.16-96.15 39.65-141.35 16.46-52.951-27.093-81.089-88.036-65.24-147.17 24.06-89.978 134.866-125.436 206.59-64.24-59.805 50.995-60.273 143.555 0 194.95z" fill="#f1ebeb"/><path d="m21.115 341.389c0 23.519 6.935 46.195 20.02 65.57.01.01.01.02.02.03 15.65 18.59 39.1 30.4 65.3 30.4h309.33c41.24 0 74.67-33.43 74.67-74.67 0-55.413-58.204-91.141-107.41-67.11-6.87-64.21-61.22-114.22-127.26-114.22-38.76 0-73.48 17.22-96.96 44.43-72.137-12.64-137.71 42.918-137.71 115.57z" fill="#aefcfe"/><path d="m21.115 341.389c0 23.519 6.935 46.195 20.02 65.57.01.01.01.02.02.03 15.65 18.59 39.1 30.4 65.3 30.4h53.33c0-29.35 13.407-55.088 34.241-72.515 52.223-43.684 30.28-128.606-36.953-139.342-71.854-11.473-135.958 44.13-135.958 115.857z" fill="#94f8fa"/><path d="m391.731 330.768c44.779-1.606 80.738 35.983 77.142 80.664-.295 3.663-.567 4.365-.4 4.198 46.997-46.807 13.636-127.572-52.689-127.572-11.836 0-23.03 2.754-32.975 7.656-17.726 8.74-10.828 35.763 8.922 35.054z" fill="#94f8fa"/><path d="m512.085 300.195c-.002-11.571-7.737-15.852-13.701-21.815-43.701-43.701-41.657-116.229 6.329-157.153 9.823-8.379 9.824-23.575.001-31.954-82.372-70.267-209.632-31.246-239.574 71.417-42.847-2.678-84.26 13.133-114.292 42.919-116.861-10.365-191.438 119.743-127.162 215.036.433.648.902 1.272 1.404 1.869 20.264 24.07 49.92 37.875 81.365 37.875h309.33c71.624 0 117.535-76.064 85.204-139.15 4.436-3.544 11.097-8.488 11.096-19.044zm-53.413-191.774c-37.93 46.346-43.697 110.39-17.307 162.116-14.004-3.89-28.564-4.444-42.273-2.034-13.142-46.143-47.855-83.064-92.62-99.248 20.639-63.118 93.944-91.923 152.2-60.834zm-42.887 307.968h-309.33c-18.661 0-36.285-8.041-48.526-22.097-44.541-67.603 10.361-158.966 92.883-148.446 47.078 6.06 83.973 46.398 83.973 95.543 0 11.598 9.402 21 21 21s21-9.402 21-21c0-53.977-31.079-100.825-76.278-123.609 61.468-37.1 143-4.195 159.496 67.234-4.155 2.986-8.132 6.328-11.865 10.062-8.201 8.201-8.201 21.498 0 29.698 8.201 8.201 21.497 8.201 29.698 0 33.709-33.708 91.618-9.726 91.618 37.945.001 29.594-24.075 53.67-53.669 53.67z"/></svg>