<svg id="Layer_1" enable-background="new 0 0 511.336 511.336" height="512" viewBox="0 0 511.336 511.336" width="512" xmlns="http://www.w3.org/2000/svg"><path d="m20.993 234.332c0 23.519 6.935 46.195 20.02 65.57.01.01.01.02.02.03 15.65 18.59 39.1 30.4 65.3 30.4h309.33c41.24 0 74.67-33.43 74.67-74.67 0-55.413-58.204-91.141-107.41-67.11-6.87-64.21-61.22-114.22-127.26-114.22-38.76 0-73.48 17.22-96.96 44.43-72.137-12.641-137.71 42.918-137.71 115.57z" fill="#aefcfe"/><path d="m20.993 234.332c0 23.519 6.935 46.195 20.02 65.57.01.01.01.02.02.03 15.65 18.59 39.1 30.4 65.3 30.4h53.33c0-29.35 13.407-55.088 34.241-72.515 52.223-43.684 30.28-128.606-36.953-139.342-71.854-11.473-135.958 44.13-135.958 115.857z" fill="#94f8fa"/><path d="m391.609 223.711c44.779-1.606 80.738 35.983 77.142 80.664-.295 3.663-.567 4.365-.4 4.198 46.997-46.807 13.636-127.572-52.689-127.572-11.836 0-23.03 2.754-32.975 7.656-17.726 8.74-10.828 35.762 8.922 35.054z" fill="#94f8fa"/><path d="m484.075 188.866c-16.673-18.579-49.569-33.668-85.106-27.42-31.012-108.893-167.857-144.619-248.244-64.895-82.757-7.35-154.533 59.719-150.568 144.598 1.439 29.658 13.892 59.357 24.811 72.306 19.354 22.991 47.279 36.608 77.146 37.784l-5.04 15.119c-3.668 11.003 2.278 22.896 13.281 26.563 10.975 3.663 22.888-2.256 26.562-13.281l9.436-28.308h83.729l-5.009 15.026c-3.668 11.003 2.278 22.896 13.281 26.563 10.975 3.663 22.888-2.256 26.563-13.281l9.436-28.308h83.729l-5.009 15.026c-3.668 11.003 2.278 22.896 13.281 26.563 10.975 3.663 22.888-2.256 26.563-13.281l9.436-28.308h13.309c84.947 0 127.093-102.393 68.413-162.466zm-68.412 120.466h-309.33c-18.665 0-36.29-8.041-48.531-22.103-44.484-67.536 10.269-158.928 92.861-148.444 47.248 6.063 84 46.554 84 95.546 0 11.598 9.402 21 21 21s21-9.402 21-21c0-53.977-31.079-100.825-76.278-123.609 61.468-37.1 143-4.196 159.496 67.234-4.155 2.986-8.132 6.328-11.865 10.061-8.2 8.201-8.2 21.498 0 29.699 8.201 8.201 21.498 8.201 29.699 0 33.93-33.934 91.617-9.398 91.617 37.944.001 29.596-24.076 53.672-53.669 53.672z"/><path d="m176.97 385.077c-11.005-3.673-22.896 2.278-26.563 13.281l-10.667 32c-4.547 13.639 5.663 27.646 19.925 27.646 8.792 0 16.986-5.565 19.919-14.365l10.667-32c3.668-11.002-2.278-22.895-13.281-26.562z"/><path d="m304.97 385.077c-11.003-3.673-22.896 2.278-26.563 13.281l-10.667 32c-4.547 13.639 5.663 27.646 19.925 27.646 8.792 0 16.986-5.565 19.919-14.365l10.667-32c3.668-11.002-2.278-22.895-13.281-26.562z"/></svg>