<svg id="Layer_1" enable-background="new 0 0 511.382 511.382" height="512" viewBox="0 0 511.382 511.382" width="512" xmlns="http://www.w3.org/2000/svg"><path d="m373.001 255.691-32 85.333-85.333 32-85.333-32-32-85.333 32-85.333 85.333-32 85.333 32z" fill="#aefcfe"/><path d="m484.585 255.691 22.55-30.066c6.959-9.278 5.078-22.441-4.2-29.4-9.277-6.959-22.441-5.078-29.399 4.2l-25.7 34.267h-60.281l-22.142-59.046 23.313-23.313 40.476 16.191c10.86 4.342 23.027-1.021 27.298-11.699 4.308-10.769-.931-22.99-11.699-27.297l-23.763-9.505 20.148-20.148c8.2-8.201 8.201-21.497 0-29.698-8.202-8.201-21.497-8.201-29.699 0l-20.147 20.147-9.505-23.764c-4.308-10.769-16.526-16.007-27.297-11.699-10.769 4.307-16.007 16.529-11.699 27.297l16.19 40.477-23.314 23.313-59.045-22.142v-60.28l34.267-25.7c9.278-6.959 11.159-20.122 4.2-29.4-6.958-9.277-20.119-11.159-29.399-4.2l-30.067 22.55-30.067-22.55c-9.278-6.958-22.441-5.078-29.399 4.2-6.959 9.279-5.078 22.441 4.2 29.4l34.267 25.7v60.28l-59.045 22.142-23.314-23.313 16.19-40.477c4.308-10.768-.931-22.99-11.699-27.297-10.771-4.31-22.99.931-27.297 11.699l-9.505 23.764-20.151-20.149c-8.201-8.201-21.498-8.201-29.699 0s-8.2 21.498 0 29.698l20.148 20.148-23.763 9.505c-10.769 4.308-16.007 16.529-11.699 27.297 4.287 10.717 16.482 16.025 27.298 11.699l40.476-16.191 23.313 23.313-22.142 59.046h-60.282l-25.7-34.267c-6.958-9.277-20.121-11.159-29.399-4.2-9.278 6.958-11.159 20.122-4.2 29.4l22.55 30.066-22.55 30.066c-6.959 9.278-5.078 22.441 4.2 29.4 9.236 6.928 22.41 5.12 29.399-4.2l25.7-34.267h60.281l22.142 59.046-23.314 23.316-40.476-16.191c-10.775-4.308-22.991.931-27.298 11.699-4.308 10.769.931 22.99 11.699 27.297l23.763 9.505-20.148 20.148c-8.2 8.201-8.201 21.497 0 29.698 8.201 8.2 21.496 8.202 29.699 0l20.147-20.147 9.505 23.764c4.286 10.716 16.478 16.026 27.297 11.699 10.769-4.307 16.007-16.529 11.699-27.297l-16.19-40.477 23.314-23.313 59.045 22.142v60.28l-34.267 25.7c-9.278 6.959-11.159 20.122-4.2 29.4s20.121 11.159 29.399 4.2l30.067-22.55 30.067 22.55c9.236 6.927 22.41 5.12 29.399-4.2 6.959-9.279 5.078-22.441-4.2-29.4l-34.267-25.7v-60.28l59.045-22.142 23.314 23.313-16.19 40.477c-5.527 13.815 4.706 28.807 19.491 28.804 8.334 0 16.221-4.996 19.505-13.207l9.505-23.764 20.147 20.147c4.101 4.101 9.476 6.151 14.85 6.151 18.55 0 28.108-22.59 14.85-35.849l-20.148-20.148 23.763-9.505c10.769-4.308 16.007-16.529 11.699-27.297-4.307-10.768-16.528-16.006-27.298-11.699l-40.476 16.191-23.313-23.313 22.142-59.046h60.281l25.7 34.267c4.126 5.501 10.431 8.401 16.816 8.401 16.972-.002 27.309-19.567 16.783-33.602zm-159.895 69.022-69.021 25.883-69.021-25.883-25.884-69.022 25.884-69.022 69.021-25.883 69.021 25.883 25.884 69.022z"/><circle cx="255.668" cy="255.691" r="21.333"/></svg>