<svg id="Layer_1" enable-background="new 0 0 511.335 511.335" height="512" viewBox="0 0 511.335 511.335" width="512" xmlns="http://www.w3.org/2000/svg"><path d="m20.992 234.33c0 23.519 6.935 46.195 20.02 65.57.01.01.01.02.02.03 15.65 18.59 39.1 30.4 65.3 30.4h309.33c41.24 0 74.67-33.43 74.67-74.67 0-55.413-58.204-91.141-107.41-67.11-6.87-64.21-61.22-114.22-127.26-114.22-38.76 0-73.48 17.22-96.96 44.43-72.137-12.641-137.71 42.918-137.71 115.57z" fill="#aefcfe"/><path d="m20.992 234.33c0 23.519 6.935 46.195 20.02 65.57.01.01.01.02.02.03 15.65 18.59 39.1 30.4 65.3 30.4h53.33c0-29.35 13.407-55.088 34.241-72.515 52.223-43.684 30.28-128.606-36.953-139.342-71.853-11.473-135.958 44.13-135.958 115.857z" fill="#94f8fa"/><path d="m391.609 223.709c44.779-1.606 80.738 35.983 77.142 80.664-.295 3.663-.567 4.365-.4 4.198 46.997-46.807 13.636-127.571-52.689-127.571-11.836 0-23.03 2.754-32.975 7.656-17.726 8.739-10.829 35.761 8.922 35.053z" fill="#94f8fa"/><path d="m484.074 188.864c-17.117-19.032-50.179-33.561-85.106-27.419-31.01-108.889-167.859-144.623-248.243-64.896-83.31-7.336-154.511 60.198-150.569 144.599 1.281 26.416 10.195 51.157 23.507 70.586.405.595.84 1.169 1.304 1.721 20.263 24.07 49.919 37.876 81.365 37.876h24.195l-12.118 36.36c-4.526 13.579 5.595 27.64 19.923 27.64h2.86l-5.011 15.026c-4.55 13.644 5.663 27.649 19.924 27.649 8.791-.001 16.984-5.564 19.918-14.362l14.23-42.67c4.529-13.581-5.591-27.644-19.921-27.644h-2.865l12.118-36.36c4.293-12.843-4.637-26.548-18.352-27.561-1.521-.114 3.464-.079-54.901-.079-18.664 0-36.288-8.04-48.529-22.101-43.548-66.105 7.875-155.564 88.632-148.888 49.493 4.174 88.227 45.723 88.227 95.989 0 11.598 9.402 21 21 21s21-9.402 21-21c0-53.977-31.079-100.825-76.278-123.608 61.468-37.101 143.001-4.194 159.497 67.234-4.155 2.986-8.132 6.328-11.865 10.061-8.2 8.201-8.2 21.498 0 29.699 8.201 8.201 21.498 8.201 29.699 0 33.971-33.975 91.617-9.346 91.617 37.944 0 29.594-24.076 53.67-53.67 53.67-82.461 0-78.712-.958-85.268 2.894-2.12 1.238-4.137 2.91-5.891 5.132-3.213 4.084-1.898 1.725-24.764 70.334-4.525 13.58 5.595 27.64 19.923 27.64h2.866l-5.009 15.03c-4.545 13.639 5.663 27.646 19.926 27.646 8.792-.001 16.987-5.567 19.92-14.366l14.22-42.67c4.524-13.579-5.594-27.64-19.923-27.64h-2.865l7.332-22h59.533c84.947 0 127.092-102.392 68.412-162.466z"/><path d="m266.332 309.33h-2.87l1.454-4.363c3.665-11.003-2.283-22.895-13.287-26.561-11.005-3.665-22.896 2.283-26.561 13.287l-10.66 32c-4.523 13.58 5.597 27.637 19.924 27.637h2.861l-26.352 79.027c-3.669 11.002 2.276 22.896 13.278 26.564 11 3.669 22.896-2.278 26.564-13.279l35.57-106.67c4.529-13.582-5.593-27.642-19.921-27.642z"/></svg>