<svg id="Capa_1" enable-background="new 0 0 512 512" height="512" viewBox="0 0 512 512" width="512" xmlns="http://www.w3.org/2000/svg"><path d="m432.733 64.267c-26.304 0-47.133 21.351-47.133 47.133 0 25.989 21.144 47.133 47.133 47.133 8.284 0 15-6.716 15-15s-6.716-15-15-15c-9.447 0-17.133-7.686-17.133-17.133 0-9.339 7.551-17.133 17.133-17.133 27.166 0 49.267 22.101 49.267 49.267s-22.101 49.266-49.267 49.266h-257.066c-8.284 0-15 6.716-15 15s6.716 15 15 15h257.067c43.708 0 79.267-35.559 79.267-79.267s-35.56-79.266-79.268-79.266z"/><path d="m400.6 321.333h-128.533c-8.284 0-15 6.716-15 15s6.716 15 15 15h128.533c4.577 0 8.875 1.781 12.119 5.028 3.234 3.23 5.015 7.529 5.015 12.121 0 9.438-7.679 17.117-17.117 17.117h-.017c-8.284 0-14.992 6.716-14.992 15s6.724 15 15.008 15c25.98 0 47.117-21.137 47.117-47.133 0-12.597-4.906-24.435-13.801-33.317-8.897-8.909-20.734-13.816-33.332-13.816z"/><path d="m95.333 158.533h48.2c8.284 0 15-6.716 15-15s-6.716-15-15-15h-48.2c-8.284 0-15 6.716-15 15s6.716 15 15 15z"/><path d="m207.8 321.333h-48.2c-8.284 0-15 6.716-15 15s6.716 15 15 15h48.2c8.284 0 15-6.716 15-15s-6.716-15-15-15z"/><path d="m63.2 222.8h48.2c8.284 0 15-6.716 15-15s-6.716-15-15-15h-48.2c-8.284 0-15 6.716-15 15s6.716 15 15 15z"/><path d="m175.667 385.6h-48.2c-8.284 0-15 6.716-15 15s6.716 15 15 15h48.2c8.284 0 15-6.716 15-15s-6.716-15-15-15z"/><path d="m367.4 272.067c0-8.284-6.716-15-15-15h-337.4c-8.284 0-15 6.716-15 15s6.716 15 15 15h337.4c8.284 0 15-6.716 15-15z"/><path d="m288.133 385.6h-48.2c-8.284 0-15 6.716-15 15v48.2c0 34.849 28.352 63.2 63.2 63.2h48.2c8.284 0 15-6.716 15-15v-48.2c0-34.849-28.351-63.2-63.2-63.2zm33.2 96.4h-33.2c-18.307 0-33.2-14.894-33.2-33.2v-33.2h33.2c18.307 0 33.2 14.893 33.2 33.2z"/><path d="m218.406 154.14 11.673-11.673h50.021c39.348 0 71.233-31.825 71.233-71.233v-56.234c0-8.284-6.716-15-15-15h-56.233c-39.348 0-71.233 31.825-71.233 71.233v50.02l-11.673 11.673c-5.858 5.857-5.858 15.355 0 21.213 5.87 5.872 15.367 5.846 21.212.001zm20.461-82.907c0-22.787 18.428-41.233 41.233-41.233h41.233v41.233c0 22.786-18.428 41.233-41.233 41.233h-20.021l22.594-22.594c5.858-5.857 5.858-15.355 0-21.213-5.857-5.858-15.354-5.858-21.213 0l-22.594 22.594v-20.02z"/></svg>